<svg xmlns="http://www.w3.org/2000/svg" width="5.6mm" height="5.6mm" viewBox="0 0 16 16"><title>mobilecontent_mobile</title><path d="M12.6,0H3.5a.7.7,0,0,0-.6.7V15.2a.7.7,0,0,0,.7.7h9.1a.7.7,0,0,0,.7-.7V.7A.8.8,0,0,0,12.6,0Z" fill="#40596b"/><rect x="3.7" y="2" width="8.7" height="11.5" fill="#84dbff"/><path d="M8.8,14.4H7.2a.4.4,0,0,0-.4.4c0,.2.2.3.4.3H8.8a.4.4,0,0,0,.4-.4C9.2,14.5,9,14.4,8.8,14.4Z" fill="#334a5e"/><path d="M9.4.9H6.7c-.1,0-.1.1-.1.2a.2.2,0,0,0,.2.2H9.4a.2.2,0,0,0,.2-.2C9.5,1,9.5.9,9.4.9Z" fill="#334a5e"/><path d="M9.7,8.4l-.4.4a.3.3,0,0,1-.4,0l-2-2A.6.6,0,0,1,7,6.4L7.4,6a.3.3,0,0,0,0-.4L6.6,5H6.2l-.8.8a.9.9,0,0,0,0,1.3,14.5,14.5,0,0,0,3.5,3.5.9.9,0,0,0,1.3-.1l.8-.8a.3.3,0,0,0,0-.4l-.8-.8Z" fill="#fff"/></svg>