<svg xmlns="http://www.w3.org/2000/svg" width="5.6mm" height="5.6mm" viewBox="0 0 16 16"><title>mobilecontent_mobile</title><path d="M12.6.1H3.5a.7.7,0,0,0-.6.7V15.3a.7.7,0,0,0,.7.7h9.1a.7.7,0,0,0,.7-.7V.8A.8.8,0,0,0,12.6.1Z" fill="#ccc"/><rect x="3.7" y="1.9" width="8.7" height="11.5" fill="#fff"/><path d="M8.8,14.3H7.2a.4.4,0,0,0-.4.4c0,.2.2.3.4.3H8.8a.4.4,0,0,0,.4-.4C9.2,14.4,9,14.3,8.8,14.3Z" fill="#fff"/><path d="M9.4.8H6.7c-.1,0-.1.1-.1.2a.2.2,0,0,0,.2.2H9.4a.2.2,0,0,0,.2-.2C9.5.9,9.5.8,9.4.8Z" fill="#fff"/><path d="M9.7,8.3l-.4.4H8.9l-2-2A.6.6,0,0,1,7,6.4l.4-.4a.3.3,0,0,0,0-.4l-.8-.7H6.2l-.8.8a.9.9,0,0,0,0,1.3,14.5,14.5,0,0,0,3.5,3.5.9.9,0,0,0,1.3-.1l.8-.8a.3.3,0,0,0,0-.4l-.8-.8Z" fill="#ccc"/></svg>