<svg xmlns="http://www.w3.org/2000/svg" width="16" height="16" viewBox="0 0 16 16"><title>mobile-invisible</title><path d="M12.2,1h-8a.6.6,0,0,0-.5.6V14.4a.6.6,0,0,0,.6.6h8a.6.6,0,0,0,.6-.6V1.6A.7.7,0,0,0,12.2,1Z" fill="#ccc"/><rect x="4.4" y="2.7" width="7.7" height="10.13" fill="#fff"/><path d="M8.9,13.5H7.4a.4.4,0,0,0-.4.4c0,.2.2.3.4.3H8.9a.4.4,0,0,0,.4-.4C9.2,13.6,9,13.5,8.9,13.5Z" fill="#fff"/><path d="M9.4,1.7H7c-.1,0-.1.1-.1.2l.2.2H9.4l.2-.2Z" fill="#fff"/><path d="M9.6,8.3l-.4.4H8.9L7.2,6.9a.5.5,0,0,1,.1-.4l.4-.4a.3.3,0,0,0,0-.4l-.7-.6H6.6l-.7.7a.8.8,0,0,0,0,1.1,12.8,12.8,0,0,0,3.1,3.1.8.8,0,0,0,1.1-.1l.7-.7a.3.3,0,0,0,0-.4l-.7-.7Z" fill="#ccc"/></svg>