<svg xmlns="http://www.w3.org/2000/svg" width="16" height="16" viewBox="0 0 16 16"><title>mobile-visible</title><path d="M12.1,1h-8a.6.6,0,0,0-.5.6V14.4a.6.6,0,0,0,.6.6h8a.6.6,0,0,0,.6-.6V1.6A.7.7,0,0,0,12.1,1Z" fill="#40596b"/><rect x="4.3" y="2.7" width="7.7" height="10.13" fill="#84dbff"/><path d="M8.8,13.6H7.4A.4.4,0,0,0,7,14c0,.2.2.3.4.3H8.8a.4.4,0,0,0,.4-.4C9.1,13.7,8.9,13.6,8.8,13.6Z" fill="#334a5e"/><path d="M9.3,1.7H6.9c-.1,0-.1.1-.1.2l.2.2H9.3l.2-.2Z" fill="#334a5e"/><path d="M9.6,8.4l-.4.4H8.9L7.1,6.9a.5.5,0,0,1,.1-.4l.4-.4a.3.3,0,0,0,0-.4l-.7-.5H6.5l-.7.7a.8.8,0,0,0,0,1.1,12.8,12.8,0,0,0,3.1,3.1.8.8,0,0,0,1.1-.1l.7-.7a.3.3,0,0,0,0-.4L10,8.4Z" fill="#fff"/></svg>