<svg xmlns="http://www.w3.org/2000/svg" width="5.6mm" height="5.6mm" viewBox="0 0 16 16"><title>mobilecontent_mobile</title><path d="M12.6 0H3.5a.7.7 0 0 0-.6.7v14.5a.7.7 0 0 0 .7.7h9.1a.7.7 0 0 0 .7-.7V.7a.8.8 0 0 0-.8-.7z" fill="#40596b"/><path fill="#84dbff" d="M3.7 2h8.7v11.5H3.7z"/><path d="M8.8 14.4H7.2a.4.4 0 0 0-.4.4c0 .2.2.3.4.3h1.6a.4.4 0 0 0 .4-.4c0-.2-.2-.3-.4-.3zM9.4.9H6.7c-.1 0-.1.1-.1.2a.2.2 0 0 0 .2.2h2.6a.2.2 0 0 0 .2-.2C9.5 1 9.5.9 9.4.9z" fill="#334a5e"/><path d="M9.7 8.4l-.4.4a.3.3 0 0 1-.4 0l-2-2a.6.6 0 0 1 .1-.4l.4-.4a.3.3 0 0 0 0-.4L6.6 5h-.4l-.8.8a.9.9 0 0 0 0 1.3 14.5 14.5 0 0 0 3.5 3.5.9.9 0 0 0 1.3-.1l.8-.8a.3.3 0 0 0 0-.4l-.8-.8z" fill="#fff"/></svg>